<svg xmlns="http://www.w3.org/2000/svg" x="0px" y="0px"
width="48" height="48"
viewBox="0 0 172 172"
style=" fill:#000000;"><g fill="none" fill-rule="nonzero" stroke="none" stroke-width="1" stroke-linecap="butt" stroke-linejoin="miter" stroke-miterlimit="10" stroke-dasharray="" stroke-dashoffset="0" font-family="none" font-weight="none" font-size="none" text-anchor="none" style="mix-blend-mode: normal"><path d="M0,172v-172h172v172z" fill="none"></path><g><path d="M157.66667,86c0,39.57433 -32.09233,71.66667 -71.66667,71.66667c-39.57433,0 -71.66667,-32.09233 -71.66667,-71.66667c0,-39.57433 32.09233,-71.66667 71.66667,-71.66667c39.57433,0 71.66667,32.09233 71.66667,71.66667z" fill="#2ECC71"></path><path d="M77.54692,80.61067h5.91967c4.69058,0 7.04125,-2.35067 7.04125,-7.08425c0,-1.83467 -0.559,-3.3325 -1.68058,-4.4935c-1.12158,-1.161 -2.70183,-1.74867 -4.73,-1.74867c-1.66625,0 -3.10675,0.50525 -4.33942,1.49783c-1.23267,0.99258 -1.849,2.22525 -1.849,3.70875h-12.556c0,-2.93833 0.79908,-5.54342 2.37933,-7.85108c1.59458,-2.29692 3.80908,-4.08858 6.622,-5.375c2.81292,-1.28642 5.91967,-1.93142 9.29517,-1.93142c6.03433,0 10.77867,1.41542 14.23658,4.257c3.45792,2.82725 5.17792,6.71875 5.17792,11.6745c0,2.408 -0.71308,4.67625 -2.15717,6.80117c-1.41542,2.1285 -3.50092,3.86283 -6.22783,5.19225c2.88458,1.06425 5.1385,2.70183 6.77608,4.86975c1.63758,2.20017 2.46175,4.88767 2.46175,8.1055c0,4.98442 -1.86333,8.95833 -5.58642,11.954c-3.73742,2.98133 -8.6215,4.47917 -14.68092,4.47917c-3.55467,0 -6.84417,-0.69875 -9.88283,-2.0855c-3.053,-1.40108 -5.34633,-3.3325 -6.91583,-5.77992c-1.56592,-2.47967 -2.35067,-5.27825 -2.35067,-8.41367h12.62408c0,1.70925 0.67367,3.19275 2.01742,4.43617c1.34375,1.26133 2.99567,1.87408 4.95575,1.87408c2.21092,0 3.97392,-0.63067 5.29258,-1.88842c1.31508,-1.26133 1.97442,-2.88458 1.97442,-4.84467c0,-2.81292 -0.67367,-4.80167 -2.0425,-5.977c-1.36883,-1.17533 -3.26083,-1.763 -5.6545,-1.763h-6.11675v-9.61408z" fill="#ffffff"></path></g></g></svg>