<svg xmlns="http://www.w3.org/2000/svg" x="0px" y="0px"
width="48" height="48"
viewBox="0 0 172 172"
style=" fill:#000000;"><g fill="none" fill-rule="nonzero" stroke="none" stroke-width="1" stroke-linecap="butt" stroke-linejoin="miter" stroke-miterlimit="10" stroke-dasharray="" stroke-dashoffset="0" font-family="none" font-weight="none" font-size="none" text-anchor="none" style="mix-blend-mode: normal"><path d="M0,172v-172h172v172z" fill="none"></path><g><path d="M157.66667,86c0,39.57433 -32.09233,71.66667 -71.66667,71.66667c-39.57433,0 -71.66667,-32.09233 -71.66667,-71.66667c0,-39.57433 32.09233,-71.66667 71.66667,-71.66667c39.57433,0 71.66667,32.09233 71.66667,71.66667z" fill="#2ECC71"></path><path d="M107.5,114.66667h-38.28433v-8.53908l17.62283,-19.10633c4.35375,-5.0955 6.52167,-9.14108 6.52167,-12.15108c0,-2.42233 -0.51958,-4.28208 -1.54083,-5.54342c-1.03558,-1.27208 -2.51908,-1.90275 -4.4935,-1.90275c-1.93142,0 -3.50092,0.85283 -4.70492,2.54775c-1.204,1.69492 -1.806,3.80908 -1.806,6.3425h-12.73158c0,-3.47225 0.8385,-6.66142 2.51908,-9.60333c1.69492,-2.93833 4.01692,-5.23525 7.01258,-6.9015c2.98133,-1.65192 6.32817,-2.47608 10.02258,-2.47608c5.91967,0 10.49917,1.41542 13.70267,4.24267c3.20708,2.81292 4.80167,6.8585 4.80167,12.15108c0,2.22525 -0.40492,4.39675 -1.204,6.49658c-0.81342,2.11417 -2.05683,4.32508 -3.75175,6.63633c-1.69492,2.322 -4.42183,5.418 -8.20225,9.3095l-7.08425,8.41367h21.60033z" fill="#ffffff"></path></g></g></svg>